# AST/ASF file generated using VICON BodyLanguage
# -----------------------------------------------
:version 1.10
:name VICON
:units
  mass 1.0
  length 0.45
  angle deg
:documentation
   .ast/.asf automatically generated from VICON data using
   VICON BodyBuilder and BodyLanguage model FoxedUp or BRILLIANT.MOD
:root
   order TX TY TZ RX RY RZ
   axis XYZ
   position 0 0 0  
   orientation 0 0 0 
:bonedata
  begin
     id 1 
     name lhipjoint
     direction 0.535335 -0.74333 0.401095 
     length 2.04549 
     axis 0 0 0  XYZ
  end
  begin
     id 2 
     name lfemur
     direction 0.34202 -0.939693 0  
     length 6.95643  
     axis 0 0 20  XYZ
    dof rx ry rz
    limits (-160.0 20.0)
           (-70.0 70.0)
           (-60.0 70.0)
  end
  begin
     id 3 
     name ltibia
     direction 0.34192 -0.939729 0   
     length 5.55969   
     axis 0 0 20   XYZ
    dof rx
    limits (-10.0 170.0)
  end
  begin
     id 4 
     name lfoot
     direction 0.216943 -0.596046 0.773088   
     length 2.27918   
     axis -90 7.62852e-016 20   XYZ
    dof rx rz
    limits (-45.0 90.0)
           (-70.0 20.0)
  end
  begin
     id 5 
     name ltoes
     direction 1.53519e-011 -4.21748e-011 1   
     length 1.05562   
     axis -90 7.62852e-016 20   XYZ
    dof rx
    limits (-90.0 20.0)
  end
  begin
     id 6 
     name rhipjoint
     direction -0.576368 -0.719173 0.38806   
     length 2.1142  
     axis 0 0 0  XYZ 
  end
  begin
     id 7 
     name rfemur
     direction -0.34202 -0.939693 0   
     length 7.07928   
     axis 0 0 -20   XYZ
    dof rx ry rz
    limits (-160.0 20.0)
           (-70.0 70.0)
           (-70.0 60.0)
  end
  begin
     id 8 
     name rtibia
     direction -0.34202 -0.939693 0   
     length 5.79974   
     axis 0 0 -20   XYZ
    dof rx
    limits (-10.0 170.0)
 end
 begin
     id 9 
     name rfoot
     direction -0.189288 -0.520065 0.832888   
     length 2.42173  
     axis -90 -7.62852e-016 -20   XYZ
    dof rx rz
    limits (-45.0 90.0)
           (-20.0 70.0)
  end
  begin
     id 10 
     name rtoes
     direction -1.53574e-011 -4.21658e-011 1   
     length 1.14469   
     axis -90 -7.62852e-016 -20   XYZ
    dof rx
    limits (-90.0 20.0)
  end
  begin
     id 11 
     name lowerback
     direction -0.00135702 0.993803 0.111144   
     length 1.91308   
     axis 0 0 0   XYZ
    dof rx ry rz
    limits (-20.0 45.0)
           (-30.0 30.0)
           (-30.0 30.0)
  end
  begin
     id 12 
     name upperback
     direction -0.0056745 0.999813 0.0184631   
     length 1.9212   
     axis 0 0 0   XYZ
    dof rx ry rz
    limits (-20.0 45.0)
           (-30.0 30.0)
           (-30.0 30.0)
  end
  begin
     id 13 
     name thorax
     direction -0.00733434 0.999426 -0.0330788   
     length 1.94196   
     axis 0 0 0   XYZ
    dof rx ry rz
    limits (-20.0 45.0)
           (-30.0 30.0)
           (-30.0 30.0)
  end
  begin
     id 14 
     name lowerneck
     direction 0.0563074 0.996944 -0.0541571   
     length 2.34257   
     axis 0 0 0   XYZ
    dof rx ry rz
    limits (-20.0 45.0)
           (-30.0 30.0)
           (-30.0 30.0)
  end
  begin
     id 15 
     name upperneck
     direction -0.0544519 0.976166 -0.210085   
     length 2.32506   
     axis 0 0 0   XYZ
    dof rx ry rz
    limits (-20.0 45.0)
           (-30.0 30.0)
           (-30.0 30.0)
  end
  begin
     id 16
     name head
     direction -0.0226035 0.997615 -0.0652205  
     length 2.3648  
     axis 0 0 0   XYZ
    dof rx ry rz
    limits (-20.0 45.0)
           (-30.0 30.0)
           (-30.0 30.0)
  end
  begin
     id 17 
     name lclavicle
     direction 0.92109 0.381297 -0.0787716  
     length 4.0487  
     axis 0 0 0   XYZ
    dof ry rz
    limits (-20.0 10.0)
           (0.0 20.0)
  end
  begin
     id 18 
     name lhumerus
     direction 1 -4.48986e-011 3.56724e-027   
     length 4.94991   
     axis 180 -30 -90   XYZ
    dof rx ry rz
    limits (-60.0 90.0)
           (-90.0 90.0)
           (-90.0 90.0)
  end
  begin
     id 19
     name lradius
     direction 1 -4.48981e-011 8.62147e-027   
     length 2.7606   
     axis 180 -30 -90   XYZ
    dof rx
    limits (-10.0 170.0)
  end
  begin
     id 20
     name lwrist
     direction 1 -4.48989e-011 1.59799e-026   
     length 1.3803   
     axis -1.17785e-014 90 90   XYZ
    dof ry
    limits (-180.0 0.0)
 end
  begin
     id 21 
     name lhand
     direction 1 -4.48896e-011 3.19599e-026   
     length 0.843936   
     axis -2.03931e-014 90 90   XYZ
    dof rx rz
    limits (-90.0 90.0)
           (-45.0 45.0)
  end
  begin
     id 22 
     name lfingers
     direction 1 -4.48887e-011 6.39197e-026   
     length 0.680403   
     axis -4.07862e-014 90 90   XYZ
    dof rx
    limits (0.0 90.0)
  end
  begin
     id 23
     name lthumb
     direction 0.707107 -6.348e-011 0.707107   
     length 0.976926   
     axis -90 45 2.85299e-015   XYZ
    dof rx rz
    limits (-45.0 45.0)
           (-45.0 45.0)
  end
  begin
     id 24 
     name rclavicle
     direction -0.951104 0.307692 -0.026953   
     length 4.21801  
     axis 0 0 0   XYZ 
    dof ry rz
    limits (-10.0 20.0)
           (-20.0 0.0)
  end
  begin
     id 25 
     name rhumerus
     direction -1 -4.4896e-011 -1.8171e-018  
     length 4.32982   
     axis 180 30 90   XYZ
    dof rx ry rz
    limits (-90.0 60.0)
           (-90.0 90.0)
           (-90.0 90.0)
  end
  begin
     id 26 
     name rradius
     direction -1 -4.48959e-011 8.25165e-027   
     length 3.20057   
     axis 180 30 90   XYZ
    dof rx
    limits (-10.0 170.0)
  end
  begin
     id 27 
     name rwrist
     direction -1 -4.48997e-011 1.59799e-026   
     length 1.60029   
     axis -1.17785e-014 -90 -90   XYZ
    dof ry
    limits (-180.0 0.0)
  end
  begin
     id 28
     name rhand
     direction -1 -4.49023e-011 3.19599e-026   
     length 0.960433   
     axis -2.03931e-014 -90 -90   XYZ
    dof rx rz
    limits (-90.0 90.0)
           (-45.0 45.0)
  end
  begin
     id 29
     name rfingers
     direction -1 -4.48802e-011 6.39197e-026   
     length 0.774326   
     axis -4.07862e-014 -90 -90   XYZ
    dof rx
    limits (0.0 90.0)
  end
  begin
     id 30
     name rthumb
     direction -0.707107 -6.34876e-011 0.707107   
     length 1.11178   
     axis -90 -45 -2.85299e-015   XYZ
    dof rx rz
    limits (-45.0 45.0)
           (-45.0 45.0)
  end
:hierarchy
  begin
    root lhipjoint rhipjoint lowerback
    lhipjoint lfemur
    lfemur ltibia
    ltibia lfoot
    lfoot ltoes
    rhipjoint rfemur
    rfemur rtibia
    rtibia rfoot
    rfoot rtoes
    lowerback upperback
    upperback thorax
    thorax lowerneck lclavicle rclavicle
    lowerneck upperneck
    upperneck head
    lclavicle lhumerus
    lhumerus lradius
    lradius lwrist
    lwrist lhand lthumb
    lhand lfingers
    rclavicle rhumerus
    rhumerus rradius
    rradius rwrist
    rwrist rhand rthumb
    rhand rfingers
end

#!OML:ASF C:\KaitlinTest1\Natural Motions\Nikki\Session 2\Nikki.ASF
:FULLY-SPECIFIED
:DEGREES
256
root -4.18085 19.527 5.08413 -144.484 82.9552 -156.193
lowerback -9.05684 -2.9935 2.37663
upperback -7.38095 -3.78712 1.21008
thorax -2.67866 -1.82588 -0.326459
lowerneck 8.94093 -7.89451 -15.8631
upperneck 11.8121 44.9999 8.21235
head 172.265 59.5314 -31.9155
rclavicle -8.03028e-014 -9.39258e-015
rhumerus -42.5991 32.4104 -79.8007
rradius 93.9751
rwrist -6.62081
rhand -44.545 9.58446
rfingers 7.12502
rthumb -17.3458 -19.6615
lclavicle -8.03028e-014 -9.39258e-015
lhumerus -16.333 -15.8723 70.2456
lradius 78.8211
lwrist 2.78494
lhand -41.1198 1.64979
lfingers 7.12502
lthumb -14.047 31.1551
rfemur -19.7179 -12.7524 23.745
rtibia 33.4488
rfoot 13.4491 9.3708
rtoes 4.26194e-013
lfemur -16.3279 8.98504 -14.9194
ltibia 26.6815
lfoot 19.2938 -8.36733
ltoes 3.65764e-013
257
root -4.06572 19.5535 5.08703 -145.959 82.964 -157.606
lowerback -8.72862 -3.24793 2.17948
upperback -7.60392 -4.09585 1.00412
thorax -3.10175 -1.9794 -0.420449
lowerneck 9.22374 -7.74719 -15.3355
upperneck 12.5994 46.3836 9.20016
head 173.147 58.6221 -31.6834
rclavicle 2.49351e-014 1.08338e-014
rhumerus -43.9662 32.2851 -81.2478
rradius 93.6342
rwrist -6.30828
rhand -44.4663 9.58077
rfingers 7.12502
rthumb -17.2701 -19.6719
lclavicle 2.49351e-014 1.08338e-014
lhumerus -17.5421 -15.2768 69.2741
lradius 79.3083
lwrist 3.11562
lhand -41.5647 1.65389
lfingers 7.12502
lthumb -14.4758 31.129
rfemur -20.181 -12.7489 23.6443
rtibia 33.103
rfoot 12.8974 9.22044
rtoes -1.87653e-013
lfemur -17.0222 9.01585 -15.3089
ltibia 26.381
lfoot 18.2848 -8.59402
ltoes -1.36764e-013
258
root -3.94893 19.5707 5.08802 -146.828 82.9534 -158.386
lowerback -8.64649 -3.22728 2.13024
upperback -7.42506 -4.0801 1.00572
thorax -2.95346 -1.97283 -0.392588
lowerneck 9.00956 -7.86421 -15.272
upperneck 12.343 45.9708 8.95391
head 172.789 59.0038 -31.8851
rclavicle 1.33434e-014 6.95746e-016
rhumerus -44.4939 31.9104 -81.3783
rradius 93.2964
rwrist -6.31337
rhand -44.4616 9.42296
rfingers 7.12502
rthumb -17.2655 -19.8301
lclavicle 1.33434e-014 6.95746e-016
lhumerus -17.7767 -14.7245 68.9306
lradius 79.4868
lwrist 3.24308
lhand -41.8977 1.66341
lfingers 7.12502
lthumb -14.7966 31.1152
rfemur -20.6829 -12.702 23.5922
rtibia 32.8639
rfoot 12.3093 8.96233
rtoes -2.54444e-014
lfemur -17.6757 9.00702 -15.6173
ltibia 26.0266
lfoot 17.3012 -8.96908
ltoes 1.59028e-014
259
root -3.82699 19.5773 5.0905 -147.615 82.9683 -159.017
lowerback -8.20933 -3.19904 2.12593
upperback -7.4805 -4.03393 0.978479
thorax -3.25272 -1.95375 -0.388255
lowerneck 9.01295 -7.86629 -15.2605
upperneck 12.5188 46.3501 9.15574
head 173.056 58.5158 -31.7849
rclavicle 6.86801e-014 3.08116e-014
rhumerus -45.5608 31.4514 -81.827
rradius 92.8706
rwrist -6.20284
rhand -44.429 9.46264
rfingers 7.12502
rthumb -17.2341 -19.7931
lclavicle 6.86801e-014 3.08116e-014
lhumerus -18.6505 -14.2355 68.7422
lradius 79.7772
lwrist 3.06287
lhand -42.1264 1.65595
lfingers 7.12502
lthumb -15.0169 31.0914
rfemur -21.3834 -12.6803 23.5193
rtibia 32.6534
rfoot 12.0436 8.80384
rtoes -4.38917e-013
lfemur -18.3353 9.16155 -15.9334
ltibia 25.8044
lfoot 16.5138 -9.47146
ltoes -3.33958e-013
260
root -3.71444 19.5737 5.09439 -148.752 82.9999 -159.954
lowerback -7.67298 -3.17571 1.9985
upperback -7.44565 -3.99365 1.03077
thorax -3.49694 -1.93203 -0.232386
lowerneck 8.82452 -7.87264 -15.3511
upperneck 12.5221 46.5365 9.1727
head 173.213 58.1982 -31.7336
rclavicle 4.66958e-014 -6.36111e-015
rhumerus -46.3314 31.1168 -81.9734
rradius 92.3652
rwrist -6.11991
rhand -44.412 9.31089
rfingers 7.12502
rthumb -17.2177 -19.9463
lclavicle 4.66958e-014 -6.36111e-015
lhumerus -19.2604 -13.7667 68.549
lradius 79.9136
lwrist 2.8943
lhand -42.2099 1.67805
lfingers 7.12502
lthumb -15.0974 31.1075
rfemur -21.913 -12.5109 23.3734
rtibia 32.4712
rfoot 11.621 8.66225
rtoes 3.18055e-015
lfemur -18.9759 9.22512 -16.272
ltibia 25.537
lfoot 16.0902 -9.85734
ltoes -1.52667e-013
261
root -3.59972 19.553 5.09937 -148.786 83.0069 -159.735
lowerback -7.25381 -2.87213 2.11324
upperback -7.13609 -3.6084 1.23966
thorax -3.38783 -1.7457 -0.0535534
lowerneck 8.36381 -8.11051 -15.8637
upperneck 11.7065 45.2382 8.18707
head 172.396 58.7666 -31.9517
rclavicle 3.54085e-015 2.53699e-014
rhumerus -46.8575 30.7161 -81.518
rradius 92.1611
rwrist -8.08436
rhand -44.7756 10.0605
rfingers 7.12502
rthumb -17.5677 -19.1658
lclavicle 3.54085e-015 2.53699e-014
lhumerus -19.2024 -13.3252 69.1138
lradius 79.8081
lwrist 2.39639
lhand -42.2483 1.67197
lfingers 7.12502
lthumb -15.1344 31.0986
rfemur -22.3722 -12.2363 23.3371
rtibia 32.2922
rfoot 10.9057 8.70639
rtoes -2.35361e-013
lfemur -19.5784 9.25943 -16.4185
ltibia 25.2666
lfoot 15.9073 -10.2042
ltoes -2.83069e-013
262
root -3.48408 19.5283 5.10471 -149.496 83.1132 -160.347
lowerback -7.08717 -2.79645 2.06533
upperback -6.94697 -3.52051 1.18615
thorax -3.27931 -1.7055 -0.0764456
lowerneck 8.0987 -8.24683 -15.762
upperneck 11.4767 44.8979 8.00178
head 172.159 58.9545 -32.0934
rclavicle 1.87261e-014 -2.29348e-014
rhumerus -47.3074 30.1201 -81.7953
rradius 91.45
rwrist -8.27326
rhand -44.7006 10.2969
rfingers 7.12502
rthumb -17.4955 -18.9358
lclavicle 1.87261e-014 -2.29348e-014
lhumerus -19.5361 -12.9185 68.7181
lradius 79.7534
lwrist 2.12059
lhand -42.2093 1.71057
lfingers 7.12502
lthumb -15.0968 31.14
rfemur -22.9766 -11.7673 23.1354
rtibia 32.1118
rfoot 10.267 8.33251
rtoes 1.55847e-013
lfemur -20.3612 9.20864 -16.723
ltibia 25.03
lfoot 15.9243 -10.5397
ltoes 2.3218e-013
263
root -3.37021 19.491 5.11115 -150.8 83.0977 -161.538
lowerback -6.63225 -2.82059 1.95985
upperback -6.95804 -3.54221 1.19765
thorax -3.53567 -1.71537 0.0169042
lowerneck 7.96474 -8.26101 -15.7921
upperneck 11.4972 45.0558 8.02117
head 172.153 58.7976 -32.1468
rclavicle 3.2169e-014 5.46658e-015
rhumerus -48.0589 29.749 -82.1774
rradius 90.7024
rwrist -8.25713
rhand -44.5999 10.3331
rfingers 7.12502
rthumb -17.3986 -18.9083
lclavicle 3.2169e-014 5.46658e-015
lhumerus -20.4295 -12.364 68.6138
lradius 79.7261
lwrist 1.39571
lhand -41.9968 1.69367
lfingers 7.12502
lthumb -14.8921 31.1384
rfemur -23.5367 -11.3565 22.9029
rtibia 31.9141
rfoot 9.69067 7.9094
rtoes -3.18055e-014
lfemur -21.2263 9.21798 -17.0552
ltibia 24.8592
lfoot 16.1941 -11.1871
ltoes 6.04305e-014
264
root -3.25052 19.4393 5.11597 -150.843 83.2925 -161.324
lowerback -6.08558 -2.72248 1.99421
upperback -6.93938 -3.40845 1.16849
thorax -3.82185 -1.65541 -0.00117402
lowerneck 7.89867 -8.26656 -15.7962
upperneck 11.5468 45.2358 8.10119
head 172.342 58.557 -32.0747
rclavicle 1.20078e-014 -1.98785e-016
rhumerus -48.8279 29.2752 -82.6296
rradius 89.9252
rwrist -8.38246
rhand -44.5104 10.2984
rfingers 7.12502
rthumb -17.3124 -18.9505
lclavicle 1.20078e-014 -1.98785e-016
lhumerus -21.2689 -12.0242 68.4006
lradius 79.6467
lwrist 0.913468
lhand -41.7442 1.82008
lfingers 7.12502
lthumb -14.6487 31.2827
rfemur -23.9518 -11.0131 22.7285
rtibia 31.6915
rfoot 9.28054 7.74061
rtoes -1.59028e-014
lfemur -21.8936 9.38274 -17.2827
ltibia 24.7315
lfoot 16.3872 -11.784
ltoes -1.78111e-013
265
root -3.13699 19.3709 5.12351 -151.575 83.2613 -162.049
lowerback -5.852 -2.81026 1.94142
upperback -7.05055 -3.51457 1.125
thorax -4.07052 -1.70775 -0.00333349
lowerneck 8.07281 -8.19203 -15.68
upperneck 11.8308 45.7101 8.42046
head 172.636 58.2348 -31.9749
rclavicle 2.27391e-014 -2.73329e-015
rhumerus -49.7578 28.9389 -83.4271
rradius 89.0417
rwrist -8.36695
rhand -44.4451 10.2725
rfingers 7.12502
rthumb -17.2496 -18.982
lclavicle 2.27391e-014 -2.73329e-015
lhumerus -22.4265 -11.6207 68.0008
lradius 79.5948
lwrist 0.604155
lhand -41.5224 1.88747
lfingers 7.12502
lthumb -14.4351 31.3655
rfemur -24.5797 -11.003 22.6337
rtibia 31.4818
rfoot 8.8958 8.01915
rtoes -8.90555e-014
lfemur -22.8495 9.51265 -17.5973
ltibia 24.6393
lfoot 16.5406 -12.568
ltoes -1.74931e-013
266
root -3.01952 19.2988 5.12959 -152.302 83.2984 -162.613
lowerback -5.80551 -2.77307 1.9183
upperback -6.74289 -3.48817 1.09949
thorax -3.77153 -1.69933 -0.0240317
lowerneck 7.61508 -8.33895 -15.5509
upperneck 11.6534 45.6318 8.30153
head 172.37 58.2641 -32.2277
rclavicle 1.38994e-014 -7.00716e-015
rhumerus -49.8646 28.4247 -83.6096
rradius 88.0043
rwrist -8.211
rhand -44.4356 10.2943
rfingers 7.12502
rthumb -17.2405 -18.961
lclavicle 1.38994e-014 -7.00716e-015
lhumerus -22.7475 -11.1664 67.7593
lradius 79.3199
lwrist 0.321055
lhand -41.3078 2.01782
lfingers 7.12502
lthumb -14.2283 31.5105
rfemur -25.0777 -10.8731 22.4549
rtibia 31.2567
rfoot 8.7699 8.21738
rtoes 2.35361e-013
lfemur -23.658 9.77443 -17.9241
ltibia 24.5777
lfoot 16.683 -13.3838
ltoes 2.09917e-013
